<?xml version="1.0" standalone="no"?>
<!DOCTYPE svg PUBLIC "-//W3C//DTD SVG 20010904//EN"
 "http://www.w3.org/TR/2001/REC-SVG-20010904/DTD/svg10.dtd">
<svg xmlns="http://www.w3.org/2000/svg" version="1.0" fill="#fff" width="20px" height="20px" viewBox="0 0 512.000000 512.000000" preserveAspectRatio="xMidYMid meet">
<g transform="translate(0.000000,512.000000) scale(0.100000,-0.100000)" stroke="none">
<path d="M2524 4650 c-12 -4 -31 -21 -43 -36 -21 -26 -21 -32 -21 -490 l0 -464 -38 0 c-20 0 -143 -5 -272 -10 -427 -19 -847 -66 -1159 -130 -80 -17 -148 -30 -153 -30 -4 0 -8 83 -8 185 l0 185 63 0 c274 0 488 171 528 421 13 84 5 122 -33 154 l-30 26 -334 -3 -334 -3 -27 -28 -28 -27 -3 -483 -3 -482 -102 -35 c-211 -71 -399 -184 -468 -279 -62 -87 -59 -31 -59 -1060 0 -817 2 -944 15 -982 71 -200 403 -363 973 -478 557 -113 1346 -164 2003 -131 1084 55 1852 250 2065 523 67 86 64 32 64 1068 0 1029 3 973 -59 1060 -69 96 -257 208 -468 279 l-103 35 0 212 0 213 63 0 c274 0 488 171 528 421 13 84 5 122 -33 154 l-30 26 -335 -3 -335 -3 -29 -33 -29 -32 0 -450 c0 -248 -4 -450 -8 -450 -5 0 -73 13 -153 30 -312 64 -732 111 -1159 130 -129 5 -252 10 -272 10 l-38 0 0 200 0 200 63 0 c274 0 488 171 528 421 13 84 5 122 -32 153 l-31 26 -321 -1 c-177 0 -332 -4 -343 -9z m516 -198 c0 -5 -14 -29 -31 -55 -60 -91 -154 -137 -281 -137 l-68 0 0 100 0 100 190 0 c105 0 190 -4 190 -8z m-1830 -200 c0 -5 -14 -29 -31 -55 -60 -91 -154 -137 -281 -137 l-68 0 0 100 0 100 190 0 c105 0 190 -4 190 -8z m3660 0 c0 -5 -14 -29 -31 -55 -60 -91 -154 -137 -281 -137 l-68 0 0 100 0 100 190 0 c105 0 190 -4 190 -8z m-1813 -805 c2 -3 -53 -91 -123 -196 l-127 -191 -247 0 -247 0 -126 190 c-70 104 -127 192 -127 195 0 12 984 14 997 2z m-1104 -206 l126 -189 -62 -6 c-34 -3 -107 -8 -162 -11 -55 -4 -184 -15 -286 -26 l-186 -21 -222 159 c-207 148 -219 158 -194 165 62 17 448 77 588 92 83 9 164 17 180 19 96 12 80 25 218 -182z m1617 163 c131 -14 526 -76 583 -92 25 -7 13 -17 -193 -165 l-221 -159 -187 20 c-103 12 -232 23 -287 27 -55 3 -128 8 -162 11 l-62 6 127 190 126 190 71 -7 c38 -3 131 -13 205 -21z m-2674 -315 c111 -79 201 -145 200 -146 -1 -2 -47 -14 -101 -28 -54 -14 -131 -40 -172 -56 -80 -34 -167 -104 -177 -144 l-6 -24 -83 30 c-145 53 -246 107 -303 163 -36 34 -54 60 -54 76 0 37 92 119 190 168 84 42 276 113 294 108 5 -1 100 -67 212 -147z m3635 120 c143 -46 275 -115 336 -174 69 -66 69 -84 -1 -151 -57 -56 -158 -110 -303 -163 l-81 -30 -12 30 c-32 75 -155 144 -345 194 -54 14 -100 26 -101 28 -2 1 408 297 412 297 0 0 43 -14 95 -31z m-1263 -374 c269 -21 411 -38 607 -71 116 -19 308 -70 353 -93 l35 -18 -69 -26 c-223 -85 -1023 -167 -1634 -167 -604 0 -1423 84 -1633 167 l-69 27 37 18 c115 60 491 125 905 158 403 32 1096 35 1468 5z m-2852 -273 c171 -69 437 -141 682 -183 l132 -23 0 -199 0 -199 -27 6 c-16 3 -68 13 -118 22 -407 73 -743 197 -848 314 l-37 40 0 164 0 165 59 -33 c32 -19 103 -52 157 -74z m4504 -57 l0 -165 -37 -40 c-105 -117 -441 -241 -848 -314 -49 -9 -102 -19 -117 -22 l-28 -6 0 199 0 199 158 28 c303 55 585 137 757 223 50 24 94 48 100 54 5 5 10 9 12 9 2 0 3 -74 3 -165z m-3280 -200 c184 -18 398 -31 643 -41 l177 -7 0 -200 0 -200 -172 7 c-306 12 -682 40 -820 62 l-38 6 0 200 0 200 28 -6 c15 -3 97 -12 182 -21z m2050 -174 l0 -199 -37 -6 c-139 -22 -515 -50 -820 -62 l-173 -7 0 202 0 201 53 0 c179 0 703 35 887 59 36 5 71 9 78 10 9 1 12 -45 12 -198z m-3381 -121 c167 -83 499 -180 789 -230 l132 -23 0 -199 c0 -109 -1 -198 -3 -198 -2 0 -73 14 -158 30 -407 80 -706 189 -821 301 l-48 45 0 168 c0 134 3 166 13 158 6 -6 50 -29 96 -52z m4611 -107 l0 -167 -48 -46 c-86 -83 -306 -178 -567 -244 -78 -19 -395 -86 -412 -86 -2 0 -3 89 -3 198 l0 199 133 23 c173 30 443 98 588 148 107 37 271 111 294 133 5 5 10 9 12 9 2 0 3 -75 3 -167z m-3280 -197 c80 -8 190 -18 245 -21 55 -3 121 -8 148 -11 l47 -6 -50 -55 c-54 -59 -134 -211 -146 -276 -3 -21 -13 -41 -22 -44 -14 -6 -309 19 -394 33 l-38 7 0 199 0 199 33 -5 c17 -3 97 -12 177 -20z m2050 -175 l0 -198 -37 -7 c-86 -14 -381 -39 -395 -33 -9 3 -19 23 -22 44 -12 66 -92 217 -146 276 l-51 55 53 6 c29 3 121 10 203 16 83 6 200 17 260 24 61 7 116 14 123 15 9 1 12 -45 12 -198z m-1046 119 c135 -22 283 -125 348 -241 59 -108 61 -120 66 -441 l4 -298 -95 0 c-51 0 -142 -3 -200 -6 l-106 -7 -3 172 -3 173 -34 30 c-28 25 -39 29 -70 24 -23 -3 -46 -17 -63 -36 l-28 -30 0 -167 0 -166 -107 6 c-58 4 -149 7 -200 7 l-95 0 4 298 c4 271 6 302 25 354 87 234 314 368 557 328z m-2218 -289 c180 -71 435 -139 707 -186 l97 -17 0 -200 0 -200 -27 6 c-16 3 -68 13 -118 22 -407 73 -743 197 -848 314 l-37 40 0 166 0 165 63 -35 c34 -19 108 -53 163 -75z m4494 -56 l0 -165 -37 -40 c-105 -117 -441 -241 -848 -314 -49 -9 -102 -19 -117 -22 l-28 -6 0 200 0 200 98 17 c364 64 710 168 874 264 29 17 54 31 56 31 1 0 2 -74 2 -165z m-3275 -200 c77 -8 157 -15 178 -15 l37 0 0 -201 0 -202 -92 7 c-51 4 -147 14 -213 22 -66 8 -121 14 -122 14 -2 0 -3 90 -3 201 l0 201 38 -6 c20 -4 100 -13 177 -21z m2045 -175 c0 -110 -1 -200 -3 -200 -1 0 -56 -6 -122 -14 -66 -8 -162 -18 -212 -22 l-93 -7 0 200 0 200 98 7 c53 4 142 13 197 20 55 8 108 14 118 15 16 1 17 -15 17 -199z"/>
<path d="M2524 1450 c-32 -13 -64 -59 -64 -91 0 -40 46 -88 91 -95 31 -5 42 -1 70 24 28 25 34 37 34 72 0 35 -6 47 -33 71 -33 29 -60 35 -98 19z"/>
</g>
</svg>